<?xml version="1.0" standalone="no"?>
<!DOCTYPE svg PUBLIC "-//W3C//DTD SVG 20010904//EN"
 "http://www.w3.org/TR/2001/REC-SVG-20010904/DTD/svg10.dtd">
<svg version="1.0" xmlns="http://www.w3.org/2000/svg"
 width="96.000000pt" height="96.000000pt" viewBox="0 0 96.000000 96.000000"
 preserveAspectRatio="xMidYMid meet">
<metadata>
Created by potrace 1.14, written by Peter Selinger 2001-2017
</metadata>
<g transform="translate(0.000000,96.000000) scale(0.100000,-0.100000)"
fill="#000000" stroke="none">
<path d="M116 888 c7 -20 -6 -24 -23 -7 -8 8 -16 8 -30 0 -16 -10 -15 -11 7
-5 l25 7 -25 -22 c-17 -15 -21 -24 -12 -27 6 -3 12 -14 12 -25 0 -10 5 -19 10
-19 6 0 10 -13 10 -30 0 -16 5 -30 11 -30 5 0 7 -4 4 -10 -3 -5 -1 -10 5 -10
6 0 8 -4 5 -10 -3 -5 -1 -10 5 -10 8 0 7 -6 -1 -21 -8 -15 -8 -19 0 -15 6 4
11 0 11 -8 0 -9 4 -16 9 -16 5 0 12 -7 15 -16 3 -8 2 -12 -4 -9 -16 10 -12 -7
8 -28 9 -11 12 -17 5 -14 -6 4 -15 2 -19 -4 -4 -8 -3 -9 4 -5 7 4 12 2 12 -4
0 -6 5 -8 11 -4 8 4 9 0 4 -15 -3 -12 -2 -21 4 -21 5 0 8 -9 6 -19 -2 -11 5
-30 16 -42 22 -25 24 -33 7 -23 -9 5 -9 2 1 -9 7 -9 10 -17 5 -17 -5 0 -4 -4
1 -8 6 -4 16 -18 23 -31 11 -19 11 -22 0 -15 -10 6 -11 5 -1 -8 7 -8 10 -18 6
-21 -3 -4 0 -7 8 -7 11 0 11 -2 -1 -10 -13 -8 -13 -10 2 -10 14 0 17 -7 14
-30 -2 -18 1 -27 7 -23 6 4 8 0 4 -10 -3 -9 -3 -16 1 -16 19 3 25 -2 12 -11
-11 -7 -11 -10 -2 -10 7 0 10 -5 7 -10 -3 -5 -2 -10 2 -10 5 0 10 -12 11 -27
1 -15 7 -30 13 -33 6 -4 12 -15 13 -26 2 -16 12 -19 67 -19 38 -1 73 4 86 12
16 11 23 11 29 2 4 -7 3 -9 -4 -5 -6 3 -13 3 -15 -1 -3 -5 26 -8 64 -9 38 0
63 3 57 7 -7 4 -15 6 -19 3 -4 -2 -10 0 -14 5 -3 6 4 8 17 6 13 -3 31 -2 41 1
15 5 16 8 5 22 -10 12 -10 14 0 8 12 -7 14 -3 15 32 1 9 7 20 14 25 7 4 9 15
6 24 -4 10 -2 14 5 9 7 -4 9 2 6 18 -2 14 0 28 6 31 5 3 15 15 21 27 9 16 8
19 -3 12 -7 -4 -5 2 5 13 9 11 14 23 11 26 -4 4 -1 13 5 21 7 8 10 20 6 26 -3
5 -1 10 6 10 7 0 9 3 6 7 -4 3 2 13 14 21 16 11 17 17 8 28 -7 9 -7 14 -1 14
5 0 9 13 8 29 -1 16 3 29 8 28 6 -1 11 8 10 20 0 12 3 20 7 18 8 -6 19 19 19
44 0 9 7 27 17 40 9 13 17 37 19 54 1 16 8 33 15 38 11 7 11 9 1 9 -7 0 -10 5
-7 10 4 6 11 7 17 4 7 -5 9 -2 5 8 -3 9 0 21 6 28 9 10 9 11 0 6 -21 -12 -14
8 7 22 12 7 19 21 18 35 -2 20 -7 23 -35 20 -24 -1 -32 1 -26 10 4 7 -2 5 -12
-3 -10 -8 -16 -10 -12 -3 4 6 2 15 -4 19 -8 4 -9 3 -5 -4 4 -7 2 -12 -4 -12
-6 0 -8 -5 -4 -12 4 -7 3 -8 -4 -4 -21 13 -93 16 -86 4 5 -7 2 -8 -7 -3 -17
11 -109 13 -109 2 0 -5 -4 -6 -8 -3 -5 3 -9 -1 -9 -9 0 -8 5 -12 11 -9 6 3 2
-2 -8 -10 -13 -10 -15 -16 -7 -16 10 0 11 -3 2 -14 -9 -11 -9 -15 1 -19 9 -4
9 -6 -2 -6 -11 -1 -15 -11 -14 -37 1 -20 -3 -37 -10 -40 -7 -3 -12 -15 -11
-27 3 -31 -6 -52 -15 -37 -4 6 -7 -6 -8 -27 -2 -70 -3 -73 -13 -68 -5 4 -5 -4
1 -20 9 -24 9 -25 -13 -14 -16 8 -19 8 -11 0 13 -14 3 -98 -11 -91 -5 3 -10
15 -10 28 0 13 -7 29 -16 35 -9 7 -15 24 -15 40 1 15 -2 27 -6 27 -4 0 -4 8
-1 17 5 13 2 15 -13 10 -18 -7 -18 -6 -1 7 17 13 24 32 8 22 -5 -3 -12 1 -15
10 -9 23 -8 26 7 18 6 -4 5 1 -4 12 -9 10 -15 34 -14 52 2 17 -2 32 -7 32 -5
0 -6 -5 -2 -12 4 -6 3 -8 -4 -5 -5 4 -9 18 -7 32 1 14 -2 25 -6 25 -5 0 -9 5
-9 11 0 5 4 7 10 4 6 -3 7 1 4 9 -3 9 -11 16 -16 16 -6 0 -8 9 -5 20 4 14 0
20 -11 20 -15 0 -15 2 -2 10 17 11 16 11 -57 15 -36 1 -50 -1 -46 -9 5 -8 3
-8 -8 -1 -8 6 -32 10 -54 9 -22 0 -43 4 -47 10 -5 7 -8 6 -8 -3 0 -11 -4 -9
-15 5 -13 16 -14 16 -9 2z m744 -222 c0 -3 -4 -8 -10 -11 -5 -3 -10 -1 -10 4
0 6 5 11 10 11 6 0 10 -2 10 -4z m-385 -195 c3 -5 2 -12 -3 -15 -5 -3 -9 1 -9
9 0 17 3 19 12 6z m305 -35 c0 -3 -4 -8 -10 -11 -5 -3 -10 -1 -10 4 0 6 5 11
10 11 6 0 10 -2 10 -4z m-350 -356 c0 -5 -5 -10 -11 -10 -5 0 -7 5 -4 10 3 6
8 10 11 10 2 0 4 -4 4 -10z m35 0 c3 -5 1 -10 -4 -10 -6 0 -11 5 -11 10 0 6 2
10 4 10 3 0 8 -4 11 -10z m100 0 c3 -5 1 -10 -4 -10 -6 0 -11 5 -11 10 0 6 2
10 4 10 3 0 8 -4 11 -10z"/>
</g>
</svg>
